# xmcd CD database file
#
# Track frame offsets:
#	150
#	14752
#	26610
#	39600
#	55270
#	66145
#	77700
#	94495
#	106850
#	111680
#	125292
#	131237
#	145060
#	156667
#	169840
#	178412
#	190680
#	200055
#
# Disc length: 2807 seconds
#
# Revision: 0
# Processed by: cddbd v1.5PL3 Copyright (c) Steve Scherf et al.
# Submitted via: CDex 1.51
#
DISCID=150af512
DTITLE=L'Orpheon - Vocalise en Carton
DYEAR=1998
DGENRE=Jazz
TTITLE0=In the mood
TTITLE1=Tangophile
TTITLE2=Riff louf
TTITLE3=Coeur de coucou (tico-tico)
TTITLE4=Around midnight
TTITLE5=Boum-boum
TTITLE6=Monsieur William
TTITLE7=Les siamo-saxes
TTITLE8=Jubilee stomp
TTITLE9=Jolie melodie
TTITLE10=L'astragale et l'affermie
TTITLE11=El balebros passa
TTITLE12=When i'm sixty-four
TTITLE13=L'orage
TTITLE14=Symphonie en carton (1e partie)
TTITLE15=Symphonie en carton (2e partie)
TTITLE16=Symphonie en carton (3e partie)
TTITLE17=Moi, j'aime le music-hall
EXTD=YEAR: 1998
EXTT0=
EXTT1=
EXTT2=
EXTT3=
EXTT4=
EXTT5=
EXTT6=
EXTT7=
EXTT8=
EXTT9=
EXTT10=
EXTT11=
EXTT12=
EXTT13=
EXTT14=
EXTT15=
EXTT16=
EXTT17=
PLAYORDER=
